<?xml version="1.0" standalone="no"?><!DOCTYPE svg PUBLIC "-//W3C//DTD SVG 1.1//EN" "http://www.w3.org/Graphics/SVG/1.1/DTD/svg11.dtd"><svg t="1744624620105" class="icon" viewBox="0 0 1024 1024" version="1.1" xmlns="http://www.w3.org/2000/svg" p-id="1532" data-spm-anchor-id="a313x.search_index.0.i6.2d7e3a81zP9L4i" xmlns:xlink="http://www.w3.org/1999/xlink" width="200" height="200"><path d="M60 510.968a455.796 451.968 0 1 0 911.592 0 455.796 451.968 0 1 0-911.592 0z" fill="#F0F0FF" p-id="1533" data-spm-anchor-id="a313x.search_index.0.i2.2d7e3a81zP9L4i" class="selected"></path><path d="M837.032 512c0 99-81 180-180 180H373.38c-99 0-180-81-180-180v-12c0-99 81-180 180-180h283.652c99 0 180 81 180 180v12z" fill="#7FDDFF" p-id="1534"></path><path d="M657.624 689.608H373.972c-90.448 0-165.832-67.624-178.188-154.804A179.312 179.312 0 0 0 193.972 560v12c0 99 81 180 180 180h283.652c99 0 180-81 180-180v-12c0-8.556-0.644-16.956-1.812-25.196-12.36 87.18-87.74 154.804-178.188 154.804z" fill="#FFFFFF" p-id="1535"></path><path d="M657.032 710H373.38c-109.176 0-198-88.824-198-198v-12c0-109.176 88.824-198 198-198h283.652c109.176 0 198 88.824 198 198v12c0 109.176-88.824 198-198 198zM373.38 338c-89.328 0-162 72.672-162 162v12c0 89.328 72.672 162 162 162h283.652c89.328 0 162-72.672 162-162v-12c0-89.328-72.672-162-162-162H373.38z" fill="#4096FF" p-id="1536" data-spm-anchor-id="a313x.search_index.0.i7.2d7e3a81zP9L4i" class="selected"></path><path d="M318.12 488.968h120.8v36h-120.8z m287.748 0h120.8v36h-120.8z" fill="#6E6E96" p-id="1537" data-spm-anchor-id="a313x.search_index.0.i8.2d7e3a81zP9L4i" class=""></path><path d="M858.332 212.036c39.396 66.86 61.996 144.64 61.996 227.664 0 249.612-204.064 451.968-455.796 451.968-132.224 0-251.276-55.852-334.536-145.036a456.296 456.296 0 0 0 393.8 224.296c251.736 0 455.796-202.352 455.796-451.964 0-118.496-46.012-226.324-121.26-306.928z" fill="#D5D5E0" p-id="1538"></path><path d="M118 551.584C118 311.576 314.22 117 556.264 117c108.892 0 208.492 39.392 285.14 104.568C761.008 127.056 640.724 67 506.264 67 264.22 67.004 68 261.576 68 501.588c0 132.04 59.4 250.32 153.136 330.02C156.796 755.972 118 658.28 118 551.584z" fill="#FFFFFF" p-id="1539"></path><path d="M515.796 980.936C254.544 980.936 42 770.108 42 510.968S254.544 41.004 515.796 41.004c261.248 0 473.796 210.828 473.796 469.964 0 259.14-212.536 469.968-473.796 469.968z m0-903.932C274.396 77.004 78 271.68 78 510.968s196.396 433.968 437.796 433.968 437.796-194.68 437.796-433.968S757.2 77.004 515.796 77.004z" fill="#4096FF" p-id="1540" data-spm-anchor-id="a313x.search_index.0.i5.2d7e3a81zP9L4i" class=""></path><path d="M657.032 306.572H373.38c-99 0-180 81-180 180v12c0 12.84 1.392 25.372 3.98 37.468 17.364-81.172 89.864-142.532 176.02-142.532h283.652c86.16 0 158.656 61.36 176.024 142.532a179.213 179.213 0 0 0 3.976-37.468v-12c0-99-81-180-180-180z" fill="#6E6E96" opacity=".2" p-id="1541" data-spm-anchor-id="a313x.search_index.0.i3.2d7e3a81zP9L4i" class="selected"></path></svg>